# Alias OBJ Model File
# Exported from SketchUp, (c) 2000-2012 Trimble Navigation Limited
# File units = meters

mtllib ESERCIZIO.mtl

g Mesh1 Model

usemtl FrontColor
v 0.868243 0 -0.938876
vt -34.1828 36.9636
vn 0 -1 -0
v 0.868243 0 -4.25888
vt -34.1828 167.672
v 3.17824 0 -4.25888
vt -125.128 167.672
v 3.17824 0 -0.938876
vt -125.128 36.9636
f 1/1/1 2/2/1 3/3/1 4/4/1 

vt -167.672 0
vn -1 0 -0
vt -36.9636 0
v 0.868243 2.48 -0.938876
vt -36.9636 97.6378
v 0.868243 2.48 -4.25888
vt -167.672 97.6378
f 2/5/2 1/6/2 5/7/2 6/8/2 

vt 34.1828 0
vn 0 0 1
vt 125.128 0
v 3.17824 2.48 -0.938876
vt 125.128 97.6378
vt 34.1828 97.6378
f 1/9/3 4/10/3 7/11/3 5/12/3 

vt 36.9636 0
vn 1 0 -0
vt 167.672 0
v 3.17824 2.48 -4.25888
vt 167.672 97.6378
vt 36.9636 97.6378
f 4/13/4 3/14/4 8/15/4 7/16/4 

vt -125.128 0
vn 0 0 -1
vt -34.1828 0
vt -34.1828 97.6378
vt -125.128 97.6378
f 3/17/5 2/18/5 6/19/5 8/20/5 

vt 34.1828 167.672
vn 0 1 -0
vt 34.1828 36.9636
vt 125.128 36.9636
vt 125.128 167.672
f 6/21/6 5/22/6 7/23/6 8/24/6 

