{
    "asset" : {
        "generator" : "Khronos glTF Blender I/O v1.7.33",
        "version" : "2.0"
    },
    "extensionsUsed" : [
        "KHR_materials_clearcoat"
    ],
    "scene" : 0,
    "scenes" : [
        {
            "name" : "Scene",
            "nodes" : [
                0,
                1,
                2,
                3,
                4,
                5
            ]
        }
    ],
    "nodes" : [
        {
            "mesh" : 0,
            "name" : "Cube_Cube.003",
            "rotation" : [
                0.7071068286895752,
                0,
                0,
                0.7071067094802856
            ],
            "scale" : [
                -1,
                1,
                1
            ],
            "translation" : [
                -6.052587509155273,
                0,
                -0.17348138988018036
            ]
        },
        {
            "mesh" : 1,
            "name" : "Mesh_(2)_Mesh.001",
            "rotation" : [
                -0.017196577042341232,
                -0.9672820568084717,
                -0.24374717473983765,
                0.06824259459972382
            ],
            "translation" : [
                0.4508635997772217,
                2.7778360843658447,
                -3.815268039703369
            ]
        },
        {
            "mesh" : 2,
            "name" : "Mesh_(2)_Mesh.002",
            "rotation" : [
                0.036094989627599716,
                -0.8563269376754761,
                0.5116164684295654,
                0.06041461229324341
            ],
            "translation" : [
                0.4841315746307373,
                3.218127489089966,
                -3.580669403076172
            ]
        },
        {
            "mesh" : 3,
            "name" : "Mesh_(2)_Mesh.003",
            "rotation" : [
                0.036094989627599716,
                -0.8563269376754761,
                0.5116164684295654,
                0.06041461229324341
            ],
            "translation" : [
                0.4841315746307373,
                3.218127489089966,
                -3.580669403076172
            ]
        },
        {
            "mesh" : 4,
            "name" : "Mesh_(2)_Mesh.004",
            "rotation" : [
                0.036094989627599716,
                -0.8563269376754761,
                0.5116164684295654,
                0.06041461229324341
            ],
            "translation" : [
                0.4841315746307373,
                3.218127489089966,
                -3.580669403076172
            ]
        },
        {
            "mesh" : 5,
            "name" : "Cube_Cube.001",
            "rotation" : [
                -0.010460666380822659,
                -0.7070293426513672,
                0.7070294618606567,
                -0.01046066451817751
            ],
            "scale" : [
                -1,
                1,
                1
            ],
            "translation" : [
                0.12949299812316895,
                0,
                0
            ]
        }
    ],
    "materials" : [
        {
            "doubleSided" : true,
            "extensions" : {
                "KHR_materials_clearcoat" : {
                    "clearcoatFactor" : 0.4618181884288788,
                    "clearcoatRoughnessFactor" : 0.029999999329447746
                }
            },
            "name" : "Material.015",
            "pbrMetallicRoughness" : {
                "baseColorTexture" : {
                    "index" : 0
                },
                "metallicFactor" : 0.29818180203437805,
                "roughnessFactor" : 0.9581818580627441
            }
        },
        {
            "doubleSided" : true,
            "name" : "Material.021",
            "pbrMetallicRoughness" : {
                "baseColorTexture" : {
                    "index" : 1
                },
                "metallicFactor" : 0.7007874250411987,
                "roughnessFactor" : 0.7863636016845703
            }
        },
        {
            "doubleSided" : true,
            "extensions" : {
                "KHR_materials_clearcoat" : {
                    "clearcoatFactor" : 0.0314960777759552,
                    "clearcoatRoughnessFactor" : 0.5260629653930664
                }
            },
            "name" : "Material.023",
            "pbrMetallicRoughness" : {
                "metallicFactor" : 0,
                "roughnessFactor" : 0.8299570679664612
            }
        },
        {
            "doubleSided" : true,
            "extensions" : {
                "KHR_materials_clearcoat" : {
                    "clearcoatFactor" : 0.06818181276321411,
                    "clearcoatRoughnessFactor" : 0.8436363339424133
                }
            },
            "name" : "Material",
            "pbrMetallicRoughness" : {
                "baseColorTexture" : {
                    "index" : 2
                },
                "metallicFactor" : 0.8461703658103943,
                "roughnessFactor" : 0.9220114946365356
            }
        },
        {
            "doubleSided" : true,
            "name" : "Material.020",
            "pbrMetallicRoughness" : {
                "baseColorTexture" : {
                    "index" : 3
                },
                "metallicFactor" : 0.6832723617553711,
                "roughnessFactor" : 0.7227272987365723
            }
        }
    ],
    "meshes" : [
        {
            "name" : "Cube_Cube.003",
            "primitives" : [
                {
                    "attributes" : {
                        "POSITION" : 0,
                        "NORMAL" : 1,
                        "TEXCOORD_0" : 2
                    },
                    "indices" : 3,
                    "material" : 0
                }
            ]
        },
        {
            "name" : "Mesh_(2)_Mesh.007",
            "primitives" : [
                {
                    "attributes" : {
                        "POSITION" : 4,
                        "NORMAL" : 5,
                        "TEXCOORD_0" : 6
                    },
                    "indices" : 7,
                    "material" : 1
                }
            ]
        },
        {
            "name" : "Mesh_(2)_Mesh.008",
            "primitives" : [
                {
                    "attributes" : {
                        "POSITION" : 8,
                        "NORMAL" : 9,
                        "TEXCOORD_0" : 10
                    },
                    "indices" : 11,
                    "material" : 2
                }
            ]
        },
        {
            "name" : "Mesh_(2)_Mesh.009",
            "primitives" : [
                {
                    "attributes" : {
                        "POSITION" : 12,
                        "NORMAL" : 13,
                        "TEXCOORD_0" : 14
                    },
                    "indices" : 15,
                    "material" : 3
                }
            ]
        },
        {
            "name" : "Mesh_(2)_Mesh.010",
            "primitives" : [
                {
                    "attributes" : {
                        "POSITION" : 16,
                        "NORMAL" : 17,
                        "TEXCOORD_0" : 18,
                        "COLOR_0" : 19
                    },
                    "indices" : 20,
                    "material" : 4
                }
            ]
        },
        {
            "name" : "Cube_Cube.004",
            "primitives" : [
                {
                    "attributes" : {
                        "POSITION" : 21,
                        "NORMAL" : 22,
                        "TEXCOORD_0" : 23
                    },
                    "indices" : 3,
                    "material" : 0
                }
            ]
        }
    ],
    "textures" : [
        {
            "sampler" : 0,
            "source" : 0
        },
        {
            "sampler" : 0,
            "source" : 1
        },
        {
            "sampler" : 0,
            "source" : 1
        },
        {
            "sampler" : 0,
            "source" : 2
        }
    ],
    "images" : [
        {
            "mimeType" : "image/png",
            "name" : "00_fodero",
            "uri" : "00_fodero.png"
        },
        {
            "mimeType" : "image/png",
            "name" : "Oro",
            "uri" : "Oro.png"
        },
        {
            "mimeType" : "image/png",
            "name" : "MetalStainlessSteelBrushedElongated005_COL_4K_METALNESS",
            "uri" : "MetalStainlessSteelBrushedElongated005_COL_4K_METALNESS.png"
        }
    ],
    "accessors" : [
        {
            "bufferView" : 0,
            "componentType" : 5126,
            "count" : 994,
            "max" : [
                -2.7052860260009766,
                0.28730812668800354,
                -3.447082042694092
            ],
            "min" : [
                -3.4800920486450195,
                -0.25661125779151917,
                -18.71085548400879
            ],
            "type" : "VEC3"
        },
        {
            "bufferView" : 1,
            "componentType" : 5126,
            "count" : 994,
            "type" : "VEC3"
        },
        {
            "bufferView" : 2,
            "componentType" : 5126,
            "count" : 994,
            "type" : "VEC2"
        },
        {
            "bufferView" : 3,
            "componentType" : 5123,
            "count" : 5199,
            "type" : "SCALAR"
        },
        {
            "bufferView" : 4,
            "componentType" : 5126,
            "count" : 312,
            "max" : [
                1.7294470071792603,
                4.445099830627441,
                -3.997283458709717
            ],
            "min" : [
                0.5499899983406067,
                3.5406997203826904,
                -4.82079553604126
            ],
            "type" : "VEC3"
        },
        {
            "bufferView" : 5,
            "componentType" : 5126,
            "count" : 312,
            "type" : "VEC3"
        },
        {
            "bufferView" : 6,
            "componentType" : 5126,
            "count" : 312,
            "type" : "VEC2"
        },
        {
            "bufferView" : 7,
            "componentType" : 5123,
            "count" : 1650,
            "type" : "SCALAR"
        },
        {
            "bufferView" : 8,
            "componentType" : 5126,
            "count" : 192,
            "max" : [
                1.7411799430847168,
                -3.16729998588562,
                -3.6811180114746094
            ],
            "min" : [
                0.9370329976081848,
                -4.431337833404541,
                -5.319530963897705
            ],
            "type" : "VEC3"
        },
        {
            "bufferView" : 9,
            "componentType" : 5126,
            "count" : 192,
            "type" : "VEC3"
        },
        {
            "bufferView" : 10,
            "componentType" : 5126,
            "count" : 192,
            "type" : "VEC2"
        },
        {
            "bufferView" : 11,
            "componentType" : 5123,
            "count" : 720,
            "type" : "SCALAR"
        },
        {
            "bufferView" : 12,
            "componentType" : 5126,
            "count" : 324,
            "max" : [
                3.357135057449341,
                -2.7426700592041016,
                -5.023920059204102
            ],
            "min" : [
                -0.5866360068321228,
                -3.8584530353546143,
                -5.5224127769470215
            ],
            "type" : "VEC3"
        },
        {
            "bufferView" : 13,
            "componentType" : 5126,
            "count" : 324,
            "type" : "VEC3"
        },
        {
            "bufferView" : 14,
            "componentType" : 5126,
            "count" : 324,
            "type" : "VEC2"
        },
        {
            "bufferView" : 15,
            "componentType" : 5123,
            "count" : 1278,
            "type" : "SCALAR"
        },
        {
            "bufferView" : 16,
            "componentType" : 5126,
            "count" : 176,
            "max" : [
                3.484971046447754,
                4.874791145324707,
                -5.1352858543396
            ],
            "min" : [
                1.14689302444458,
                -3.3192288875579834,
                -18.21544075012207
            ],
            "type" : "VEC3"
        },
        {
            "bufferView" : 17,
            "componentType" : 5126,
            "count" : 176,
            "type" : "VEC3"
        },
        {
            "bufferView" : 18,
            "componentType" : 5126,
            "count" : 176,
            "type" : "VEC2"
        },
        {
            "bufferView" : 19,
            "componentType" : 5123,
            "count" : 176,
            "normalized" : true,
            "type" : "VEC4"
        },
        {
            "bufferView" : 20,
            "componentType" : 5123,
            "count" : 624,
            "type" : "SCALAR"
        },
        {
            "bufferView" : 21,
            "componentType" : 5126,
            "count" : 994,
            "max" : [
                -2.7052860260009766,
                0.28730812668800354,
                -3.447082042694092
            ],
            "min" : [
                -3.4800920486450195,
                -0.25661125779151917,
                -18.71085548400879
            ],
            "type" : "VEC3"
        },
        {
            "bufferView" : 22,
            "componentType" : 5126,
            "count" : 994,
            "type" : "VEC3"
        },
        {
            "bufferView" : 23,
            "componentType" : 5126,
            "count" : 994,
            "type" : "VEC2"
        }
    ],
    "bufferViews" : [
        {
            "buffer" : 0,
            "byteLength" : 11928,
            "byteOffset" : 0
        },
        {
            "buffer" : 0,
            "byteLength" : 11928,
            "byteOffset" : 11928
        },
        {
            "buffer" : 0,
            "byteLength" : 7952,
            "byteOffset" : 23856
        },
        {
            "buffer" : 0,
            "byteLength" : 10398,
            "byteOffset" : 31808
        },
        {
            "buffer" : 0,
            "byteLength" : 3744,
            "byteOffset" : 42208
        },
        {
            "buffer" : 0,
            "byteLength" : 3744,
            "byteOffset" : 45952
        },
        {
            "buffer" : 0,
            "byteLength" : 2496,
            "byteOffset" : 49696
        },
        {
            "buffer" : 0,
            "byteLength" : 3300,
            "byteOffset" : 52192
        },
        {
            "buffer" : 0,
            "byteLength" : 2304,
            "byteOffset" : 55492
        },
        {
            "buffer" : 0,
            "byteLength" : 2304,
            "byteOffset" : 57796
        },
        {
            "buffer" : 0,
            "byteLength" : 1536,
            "byteOffset" : 60100
        },
        {
            "buffer" : 0,
            "byteLength" : 1440,
            "byteOffset" : 61636
        },
        {
            "buffer" : 0,
            "byteLength" : 3888,
            "byteOffset" : 63076
        },
        {
            "buffer" : 0,
            "byteLength" : 3888,
            "byteOffset" : 66964
        },
        {
            "buffer" : 0,
            "byteLength" : 2592,
            "byteOffset" : 70852
        },
        {
            "buffer" : 0,
            "byteLength" : 2556,
            "byteOffset" : 73444
        },
        {
            "buffer" : 0,
            "byteLength" : 2112,
            "byteOffset" : 76000
        },
        {
            "buffer" : 0,
            "byteLength" : 2112,
            "byteOffset" : 78112
        },
        {
            "buffer" : 0,
            "byteLength" : 1408,
            "byteOffset" : 80224
        },
        {
            "buffer" : 0,
            "byteLength" : 1408,
            "byteOffset" : 81632
        },
        {
            "buffer" : 0,
            "byteLength" : 1248,
            "byteOffset" : 83040
        },
        {
            "buffer" : 0,
            "byteLength" : 11928,
            "byteOffset" : 84288
        },
        {
            "buffer" : 0,
            "byteLength" : 11928,
            "byteOffset" : 96216
        },
        {
            "buffer" : 0,
            "byteLength" : 7952,
            "byteOffset" : 108144
        }
    ],
    "samplers" : [
        {
            "magFilter" : 9729,
            "minFilter" : 9987
        }
    ],
    "buffers" : [
        {
            "byteLength" : 116096,
            "uri" : "sword.bin"
        }
    ]
}
